<?xml version="1.0" encoding="UTF-8"?>
<svg xmlns="http://www.w3.org/2000/svg" viewBox="0 0 231 228" width="231" height="228">
  <!-- Blue rounded square background -->
  <rect x="0" y="0" width="231" height="228" rx="50" ry="50" fill="#0B8FF6"/>
  <!-- White N letterform (extracted from NEAR AI Brand Guidelines v01, page 9) -->
  <path d="M 168.6914 47.2891 C 163.6875 47.2891 159.0312 49.8516 156.4141 54.0664 L 128.1562 95.4688 C 127.2344 96.8359 127.6094 98.6758 128.9844 99.5820 C 130.1055 100.3164 131.5938 100.2305 132.6133 99.3633 L 160.4297 75.5547 C 160.8945 75.1406 161.6055 75.1836 162.0156 75.6406 C 162.2031 75.8516 162.3047 76.1250 162.3047 76.3984 L 162.3047 150.9453 C 162.3047 151.5586 161.8047 152.0508 161.1719 152.0508 C 160.8398 152.0508 160.5156 151.9102 160.3086 151.6562 L 76.2383 52.3242 C 73.5000 49.1406 69.4844 47.3008 65.2461 47.2891 L 62.3086 47.2891 C 54.3555 47.2891 47.9102 53.6484 47.9102 61.5000 L 47.9102 166.4883 C 47.9102 174.3398 54.3555 180.6992 62.3086 180.6992 C 67.3086 180.6992 71.9688 178.1367 74.5859 173.9219 L 102.8438 132.5234 C 103.7656 131.1523 103.3867 129.3164 102.0117 128.4062 C 100.8945 127.6719 99.4062 127.7617 98.3867 128.6250 L 70.5703 152.4336 C 70.1055 152.8516 69.3945 152.8047 68.9844 152.3477 C 68.7969 152.1367 68.6953 151.8633 68.6953 151.5898 L 68.6953 77.0234 C 68.6953 76.4102 69.1953 75.9180 69.8281 75.9180 C 70.1602 75.9180 70.4805 76.0586 70.6914 76.3086 L 154.7500 175.6641 C 157.4883 178.8477 161.5039 180.6875 165.7422 180.6992 L 168.6797 180.6992 C 176.6328 180.6992 183.0859 174.3398 183.0859 166.4883 L 183.0859 61.5117 C 183.0859 53.6602 176.6445 47.3008 168.6914 47.3008 Z M 168.6914 47.2891" fill="#FFFFFF" fill-rule="nonzero"/>
</svg>
