<svg width="96" height="18" viewBox="0 0 96 18" fill="none" xmlns="http://www.w3.org/2000/svg">
<path fill-rule="evenodd" clip-rule="evenodd" d="M84.4796 0.403931C84.7714 0.403983 84.9868 0.538649 85.0855 0.816917L85.0943 0.821301L91.0835 16.9698C91.1911 17.2975 90.9845 17.5757 90.6569 17.5757H88.1698C87.9409 17.5757 87.7567 17.4546 87.6849 17.2346L86.4236 13.6699C86.3877 13.5712 86.3022 13.5266 86.2035 13.5265H79.4291C79.3304 13.5265 79.2494 13.5757 79.209 13.6699L77.9609 17.2075C77.8756 17.4499 77.7048 17.5713 77.4624 17.5713H74.9889C74.6477 17.5713 74.4411 17.2792 74.5623 16.965L80.5379 0.816917C80.6456 0.538645 80.852 0.403971 81.1438 0.403931H84.4796ZM82.9487 3.50176C82.8903 3.34464 82.7556 3.34464 82.7063 3.50176L80.2327 10.8101C80.1834 10.9448 80.246 11.0166 80.3761 11.0166H85.2653C85.3998 11.0166 85.4581 10.9447 85.4222 10.8101L82.9487 3.50176Z" fill="url(#paint0_linear_612_10360)"/>
<path d="M95.1555 0.408315C95.4202 0.408408 95.6267 0.614837 95.6268 0.87961V17.0996C95.6268 17.3644 95.4202 17.5713 95.1555 17.5713H92.767C92.5021 17.5713 92.2957 17.3645 92.2957 17.0996V0.87961C92.2957 0.614777 92.5021 0.408315 92.767 0.408315H95.1555Z" fill="url(#paint1_linear_612_10360)"/>
<path d="M27.4025 0.00920649C32.4798 0.00923581 36.0127 3.26825 36.0127 7.34897V9.50811C36.0127 9.80888 35.7704 10.0561 35.4652 10.0561H24.4218C23.9773 10.0561 23.6673 9.78192 23.6673 9.47216V9.43665C23.6673 9.09106 23.9052 8.81709 24.2148 8.74967L31.9053 7.2591C32.1566 7.21413 32.327 6.98529 32.3091 6.72951C32.0667 4.53428 29.7683 3.19643 27.4025 3.19641C24.7987 3.19641 22.3967 4.77208 22.3608 7.07059L22.3249 10.1232C22.2934 12.8661 24.7583 14.7878 27.4025 14.7878C30.0466 14.7878 31.6584 13.1446 31.9996 12.0447C32.0714 11.8068 32.2732 11.6677 32.5156 11.6677H35.1912C35.5323 11.6677 35.7751 11.91 35.7392 12.2512C35.3935 15.5418 32.1027 17.9794 27.4025 17.9794C22.0827 17.9794 18.6887 14.7875 18.6887 10.1232V7.68567C18.6887 3.25926 22.0872 0 27.4025 0V0.00920649Z" fill="currentColor"/>
<path d="M46.5397 0C51.3432 0 54.1894 2.64417 54.1894 6.62166V17.0145C54.1893 17.3197 53.9515 17.562 53.6418 17.562H51.1727C50.8631 17.562 50.7284 17.2569 50.8987 17.0145L51.9268 15.4025C52.0974 15.1645 52.1692 14.8549 51.9627 14.6484C51.7204 14.4061 51.4465 14.406 51.1727 14.6484L49.4937 16.0894C48.3624 17.0501 46.5444 17.8715 44.4165 17.8716C41.0855 17.8716 38.1719 16.26 38.1719 13.1714V12.6914C38.1719 9.6701 41.4313 7.61377 44.6545 7.61377H48.4612C48.7395 7.61377 49.0447 7.75294 49.0807 8.02675C49.1525 8.36793 49.0132 8.67755 48.6361 8.7808L44.9641 9.77773C42.4278 10.3613 41.808 11.3533 41.808 12.5204C41.808 13.8582 43.0788 14.68 45.274 14.68C48.0887 14.6799 50.3512 13.1355 50.3512 10.0829V7.09733C50.3511 4.62835 48.7709 3.1872 46.441 3.1872C44.4837 3.18721 42.6658 4.28732 42.3919 5.79571C42.356 6.06954 42.1493 6.2762 41.8755 6.2762H39.0965C38.7913 6.27611 38.5489 6.06947 38.5489 5.79571C38.5489 2.50512 42.2525 5.87021e-05 46.5397 0Z" fill="currentColor"/>
<path d="M9.6655 0.0670759C13.7103 0.067122 16.2153 2.46894 16.2153 6.31171V17.014C16.2153 17.3192 15.9774 17.5615 15.6677 17.5616H12.9246C12.6193 17.5616 12.377 17.3238 12.377 17.014V6.65717C12.377 5.1488 11.3846 3.16002 8.60588 3.16002C7.30397 3.16003 3.83826 3.81562 3.83823 7.96361V17.0184C3.83823 17.3237 3.60041 17.5664 3.29066 17.5664H0.547567C0.242355 17.5664 0 17.3281 0 17.0184V0.964928C0 0.659699 0.237868 0.417425 0.547567 0.417361H3.1872C3.49696 0.417361 3.63179 0.722508 3.4612 0.964928L2.36125 2.61245C2.15478 2.88627 2.18639 3.16001 2.42876 3.36651C2.66662 3.57295 3.01217 3.4701 3.18282 3.331L5.24332 1.54844C6.41052 0.515914 7.7844 0.0714599 9.66988 0.0714599L9.6655 0.0670759Z" fill="currentColor"/>
<path d="M60.093 0.408154C60.4026 0.408217 60.5371 0.713326 60.3665 0.955721L59.267 2.60325C59.0605 2.87709 59.1592 3.2231 59.4016 3.39369C59.6081 3.5686 59.918 3.46531 60.0886 3.32617L61.5967 2.02411C62.526 1.23401 63.8279 0.412538 65.1657 0.412538H69.0132C69.3184 0.412617 69.5607 0.650836 69.5607 0.960544V3.11969C69.5607 3.42489 69.3228 3.66717 69.0132 3.66725H65.4441C62.3241 3.66725 60.883 5.24305 60.883 8.77598V17.0097C60.8829 17.3148 60.645 17.5572 60.3354 17.5572H57.5204C57.2153 17.5572 56.9729 17.3193 56.9728 17.0097V0.955721C56.9729 0.650539 57.2107 0.408212 57.5204 0.408154H60.093Z" fill="currentColor"/>
<defs>
<linearGradient id="paint0_linear_612_10360" x1="85.0771" y1="0.403931" x2="85.0771" y2="17.5757" gradientUnits="userSpaceOnUse">
<stop stop-color="#2257B5"/>
<stop offset="1" stop-color="#4CA7E6"/>
</linearGradient>
<linearGradient id="paint1_linear_612_10360" x1="85.0771" y1="0.403931" x2="85.0771" y2="17.5757" gradientUnits="userSpaceOnUse">
<stop stop-color="#2257B5"/>
<stop offset="1" stop-color="#4CA7E6"/>
</linearGradient>
</defs>
</svg>
